<?xml version="1.0" encoding="UTF-8"?>
<!DOCTYPE svg PUBLIC "-//W3C//DTD SVG 1.1//EN" "http://www.w3.org/Graphics/SVG/1.1/DTD/svg11.dtd">
<!-- Creator: CorelDRAW X7 -->
<svg xmlns="http://www.w3.org/2000/svg" xml:space="preserve" width="8.1328cm" height="1.3193cm" version="1.1" style="shape-rendering:geometricPrecision; text-rendering:geometricPrecision; image-rendering:optimizeQuality; fill-rule:evenodd; clip-rule:evenodd"
viewBox="0 0 8133 1319"
 xmlns:xlink="http://www.w3.org/1999/xlink">
 <defs>
  <style type="text/css">
   <![CDATA[
    .fil0 {fill:#9D2550;fill-rule:nonzero}
    .fil1 {fill:#0DB4C4;fill-rule:nonzero}
   ]]>
  </style>
 </defs>
 <g id="Слой_x0020_1">
  <metadata id="CorelCorpID_0Corel-Layer"/>
  <g id="_700651998752">
   <path class="fil0" d="M2095 355l1 110 0 89 303 0c8,28 12,59 12,92 0,33 -4,64 -12,92l-303 0 0 388c-30,6 -67,9 -112,9 -45,0 -82,-3 -112,-9l0 -954 10 -9 603 0c6,24 9,53 9,88 0,35 -10,62 -29,78 -20,17 -50,26 -91,26l-279 0zm5932 491l35 103c19,62 42,101 68,119 -41,46 -91,69 -148,69 -31,0 -54,-7 -70,-21 -16,-15 -31,-41 -43,-77l-42 -122c-9,-29 -20,-48 -33,-58 -12,-10 -28,-15 -49,-15 -21,0 -35,1 -44,2l0 280c-31,6 -66,9 -107,9 -40,0 -76,-3 -107,-9l0 -1028 10 -10 85 0c44,0 75,10 93,30 17,20 26,54 26,103l0 443 23 0c17,0 30,-9 39,-26l74 -141c26,-53 67,-80 124,-80 27,0 68,1 123,3l8 11 -109 210c-18,36 -42,64 -71,83 56,21 94,61 115,122zm-705 -185l0 289c0,62 11,108 34,139 -36,32 -79,48 -128,48 -49,0 -83,-11 -100,-33 -18,-23 -27,-57 -27,-103l0 -301c0,-32 -5,-55 -13,-70 -8,-15 -25,-23 -49,-23 -14,0 -30,4 -48,12 -18,7 -37,19 -55,36l0 471c-16,3 -34,5 -52,7 -19,1 -39,2 -58,2 -20,0 -39,-1 -58,-2 -19,-2 -36,-4 -52,-7l0 -704 10 -9 83 0c57,0 96,28 115,84 66,-58 132,-87 196,-87 66,0 116,23 151,68 34,46 51,107 51,183zm-1158 258c0,44 26,66 77,66 26,0 55,-13 88,-41l0 -113c-18,-1 -34,-1 -47,-2 -13,0 -22,0 -29,0 -59,0 -89,30 -89,90zm426 106c-4,19 -13,41 -27,63 -13,23 -26,39 -40,49 -66,-1 -117,-26 -153,-74 -61,56 -127,84 -199,84 -36,0 -68,-6 -95,-17 -28,-12 -51,-28 -70,-48 -18,-19 -32,-42 -42,-68 -9,-26 -14,-53 -14,-81 0,-40 7,-76 22,-107 14,-30 34,-55 60,-76 25,-20 55,-35 89,-45 33,-11 70,-16 108,-16 22,0 41,0 57,1 17,0 31,1 43,2l0 -27c0,-60 -30,-90 -91,-90 -40,0 -109,15 -208,46 -28,-33 -46,-84 -53,-153 22,-9 48,-17 75,-24 28,-8 56,-14 86,-20 29,-6 57,-10 86,-13 28,-4 53,-5 76,-5 33,0 64,4 95,14 30,9 57,23 80,43 23,19 42,44 55,74 14,31 21,67 21,110l0 286c0,43 13,74 39,92zm-1102 -323l-116 0 0 275c24,-1 52,-1 82,0 30,1 59,-2 85,-7 26,-6 48,-20 66,-41 17,-22 26,-52 26,-91 0,-36 -11,-68 -34,-95 -23,-28 -59,-41 -109,-41zm-116 -388l0 227 99 0c45,0 77,-11 95,-33 18,-22 27,-49 27,-81 0,-32 -9,-59 -28,-80 -18,-21 -50,-32 -94,-32l-56 0c-17,0 -31,0 -43,-1zm-214 -154c76,-2 141,-3 195,-4 54,-1 97,-1 130,-1 103,0 183,21 242,64 59,42 88,107 88,192 0,42 -11,80 -35,116 -23,36 -53,61 -90,77 24,8 46,20 67,36 21,17 39,36 54,58 15,22 27,46 36,72 9,26 13,53 13,80 0,97 -30,168 -92,215 -62,46 -149,70 -262,70 -34,0 -80,-1 -138,-2 -57,-1 -127,-2 -208,-4l-10 -10 0 -949 10 -10zm-553 533l185 0 0 -15c0,-35 -8,-64 -24,-86 -15,-23 -38,-34 -69,-34 -30,0 -52,10 -66,32 -15,21 -23,55 -26,103zm368 153l-367 0c2,41 13,74 32,97 20,23 52,35 97,35 23,0 49,-3 78,-9 30,-7 64,-17 102,-32 31,32 50,75 58,130 -75,54 -168,80 -277,80 -59,0 -108,-9 -148,-28 -40,-19 -73,-45 -98,-79 -25,-34 -42,-74 -52,-120 -11,-46 -16,-96 -16,-151 0,-52 6,-101 19,-146 13,-44 32,-83 58,-116 26,-33 59,-59 99,-77 39,-19 86,-29 140,-29 45,0 86,8 122,23 36,15 67,36 92,62 26,26 45,58 59,94 13,37 20,77 20,120 0,58 -6,106 -18,146zm-656 -425c6,26 9,52 9,78 0,26 -3,52 -9,77l-168 -3 0 325c0,44 21,66 62,66l79 0c13,34 19,65 19,94 0,28 -2,49 -6,61 -70,9 -133,14 -192,14 -118,0 -177,-65 -177,-196l0 -362 -110 1c-7,-23 -10,-48 -10,-76 0,-27 3,-54 10,-79l110 3 0 -82c0,-48 9,-82 27,-102 18,-20 49,-30 92,-30l86 0 10 9 0 205 168 -3zm-1067 103c4,-19 13,-40 26,-63 14,-23 27,-39 40,-50 86,7 147,50 180,129 36,-85 95,-127 177,-127 24,0 55,3 93,11 0,29 -5,64 -15,104 -10,39 -23,74 -40,102 -16,-6 -40,-11 -72,-14 -47,0 -86,24 -116,72l0 438c-31,6 -67,9 -109,9 -42,0 -79,-3 -111,-9l0 -455c0,-71 -18,-120 -53,-147zm-411 42c-21,0 -38,5 -51,15 -13,10 -23,23 -30,40 -8,17 -13,37 -16,59 -3,22 -4,46 -4,71 0,40 1,74 3,102 3,29 7,53 15,72 7,19 17,34 29,43 13,10 30,14 51,14 41,0 69,-18 82,-54 13,-36 20,-88 20,-154 0,-68 -7,-120 -20,-155 -13,-35 -40,-53 -79,-53zm225 -81c67,67 101,164 101,290 0,56 -7,108 -22,154 -14,46 -36,85 -63,117 -28,33 -62,58 -102,75 -41,18 -87,26 -140,26 -53,0 -99,-9 -139,-26 -40,-18 -74,-43 -102,-76 -27,-32 -48,-72 -62,-118 -14,-46 -21,-96 -21,-152 0,-56 7,-107 21,-153 14,-46 34,-85 62,-118 27,-33 61,-58 101,-76 41,-18 87,-27 140,-27 93,0 168,28 226,84z"/>
   <path class="fil1" d="M1318 588c-7,-15 -21,-24 -37,-24l-114 0c-11,0 -21,4 -28,11 -70,63 -150,92 -244,87 -164,-11 -287,-135 -285,-288 1,-115 95,-208 213,-208l0 0c47,0 95,22 125,58 5,6 13,17 18,28 3,9 3,18 0,27 -8,20 -31,32 -52,26 0,0 0,-1 0,-1 -14,-5 -28,-7 -42,-7 -50,0 -95,32 -113,79 -17,47 -3,99 35,132 2,2 4,4 6,5l3 2c0,0 0,0 1,1 1,1 3,3 5,4 60,33 133,36 195,6 71,-35 122,-107 135,-193 12,-77 -11,-155 -64,-217 -61,-73 -155,-116 -250,-117l-5 0c-206,0 -375,167 -377,373 -1,41 4,81 14,118 -7,0 -14,-1 -21,-2 -168,-11 -318,58 -429,196 -11,13 -13,30 -5,45 7,14 21,24 37,24l114 0c11,0 21,-4 28,-11 70,-64 151,-93 244,-87 164,10 287,134 285,288 -1,115 -95,208 -213,208 -47,-1 -95,-23 -125,-58 -5,-6 -13,-17 -18,-29 -3,-9 -3,-18 0,-26 8,-20 31,-32 52,-26 0,0 0,0 0,0 14,5 28,8 42,8 50,0 95,-32 113,-79 17,-47 3,-100 -35,-133 -2,-2 -3,-3 -6,-4l-3 -2c0,-1 0,-1 -1,-1 -1,-2 -3,-3 -5,-4 -60,-34 -133,-36 -195,-6 -71,35 -122,107 -135,193 -12,77 11,154 64,217 61,72 155,116 250,117l5 0 0 0c206,0 375,-168 377,-373 1,-41 -5,-81 -14,-119 7,1 14,2 21,2 12,1 23,1 34,1 155,0 291,-68 395,-197 10,-12 12,-29 5,-44z"/>
  </g>
 </g>
</svg>
