<svg width="173.2" height="200" xmlns="http://www.w3.org/2000/svg">

 <g>
  <title>background</title>
  <rect fill="none" id="canvas_background" height="402" width="582" y="-1" x="-1"/>
 </g>
 <g>
  <title>Layer 1</title>
  <polygon id="svg_1" points="-178.57142639160156,-471.42840576171875 -178.57142639160156,-571.4285888671875 -91.97145080566406,-621.4287719726562 -5.371432304382324,-571.4285888671875 -5.371432304382324,-471.42840576171875 -91.97145080566406,-421.42840576171875 " fill="#61DAFB"/>
  <polygon id="svg_2" points="-91.97145080566406,-488.12841796875 -120.87145233154297,-504.7283935546875 -120.87145233154297,-538.1284790039062 -91.97145080566406,-554.728515625 -63.07145309448242,-538.1284790039062 -34.271446228027344,-554.728515625 -91.97145080566406,-588.128662109375 -149.67144775390625,-554.728515625 -149.67144775390625,-488.12841796875 -91.97145080566406,-454.7284240722656 -34.271446228027344,-488.12841796875 -63.07145309448242,-504.7283935546875 " fill="#FFFFFF"/>
  <polygon id="svg_3" points="-178.57142639160156,-571.4285888671875 -91.97145080566406,-521.4284057617188 -91.97145080566406,-621.4287719726562 " stroke-miterlimit="10" stroke="#FFFFFF" opacity="0.04"/>
  <polygon id="svg_4" points="-178.57142639160156,-471.42840576171875 -91.97145080566406,-421.42840576171875 -91.97145080566406,-521.4284057617188 " stroke-miterlimit="10" stroke="#FFFFFF" opacity="0.04"/>
  <polygon id="svg_6" points="-91.97145080566406,-521.4284057617188 -178.57142639160156,-571.4285888671875 -178.57142639160156,-471.42840576171875 " fill-opacity="0"/>
  <path fill="#00ffff" stroke="null" id="svg_9" d="m164.523801,88.166546c-0.842822,-1.808827 -2.528465,-2.894123 -4.454915,-2.894123l-13.725954,0c-1.324435,0 -2.528466,0.482354 -3.371288,1.326473c-8.428217,7.597072 -18.060466,11.094137 -29.378359,10.491195c-19.74611,-1.326473 -34.555692,-16.279441 -34.314886,-34.729473c0.120403,-13.867672 11.438294,-25.082398 25.645862,-25.082398l0,0c5.658947,0 11.438296,2.652946 15.050389,6.99413c0.602016,0.723531 1.56524,2.050004 2.167257,3.376477c0.361209,1.085296 0.361209,2.170592 0,3.255888c-0.963226,2.411769 -3.732497,3.85883 -6.260962,3.1353c0,0 0,-0.120588 0,-0.120588c-1.685643,-0.602942 -3.371288,-0.844119 -5.056931,-0.844119c-6.020155,0 -11.438296,3.85883 -13.605551,9.526488c-2.046853,5.667657 -0.361209,11.938257 4.214108,15.917675c0.240807,0.241177 0.481613,0.482354 0.722419,0.602942l0.361209,0.241177c0,0 0,0 0.120403,0.120588c0.120404,0.120588 0.361209,0.361765 0.602016,0.482354c7.224186,3.979419 16.013613,4.341184 23.478606,0.723531c8.548621,-4.220596 14.689179,-12.902964 16.25442,-23.273571c1.444838,-9.285311 -1.324434,-18.69121 -7.705798,-26.167694c-7.34459,-8.802957 -18.662482,-13.98826 -30.100777,-14.108849l-0.602016,0c-24.80304,0 -45.151165,20.138271 -45.391972,44.979492c-0.120403,4.944126 0.481612,9.767664 1.685643,14.229437c-0.842822,0 -1.685643,-0.120588 -2.528465,-0.241177c-20.227722,-1.326473 -38.288189,6.99413 -51.652934,23.635336c-1.324435,1.56765 -1.56524,3.617653 -0.602016,5.42648c0.842822,1.688238 2.528465,2.894123 4.454915,2.894123l13.725955,0c1.324434,0 2.528465,-0.482354 3.371286,-1.326473c8.428219,-7.717661 18.18087,-11.214726 29.378359,-10.491195c19.74611,1.205884 34.555693,16.158852 34.314887,34.729473c-0.120403,13.867672 -11.438296,25.082398 -25.645863,25.082398c-5.658946,-0.120588 -11.438296,-2.773534 -15.050389,-6.99413c-0.602015,-0.723531 -1.56524,-2.050004 -2.167255,-3.497065c-0.361209,-1.085296 -0.361209,-2.170592 0,-3.1353c0.963224,-2.411769 3.732496,-3.85883 6.260962,-3.1353c0,0 0,0 0,0c1.685643,0.602942 3.371286,0.964708 5.05693,0.964708c6.020156,0 11.438296,-3.85883 13.605552,-9.526488c2.046853,-5.667657 0.361209,-12.058845 -4.214109,-16.038264c-0.240805,-0.241177 -0.361209,-0.361765 -0.722419,-0.482354l-0.361209,-0.241177c0,-0.120588 0,-0.120588 -0.120403,-0.120588c-0.120403,-0.241177 -0.361209,-0.361765 -0.602015,-0.482354c-7.224188,-4.100007 -16.013614,-4.341184 -23.478607,-0.723531c-8.54862,4.220596 -14.689179,12.902964 -16.25442,23.273571c-1.444837,9.285311 1.324435,18.570621 7.7058,26.167694c7.344589,8.682368 18.662482,13.98826 30.100777,14.108849l0.602015,0l0,0c24.803041,0 45.151166,-20.25886 45.391973,-44.979492c0.120403,-4.944126 -0.602016,-9.767664 -1.685644,-14.350025c0.842823,0.120588 1.685644,0.241177 2.528466,0.241177c1.444837,0.120588 2.769272,0.120588 4.093705,0.120588c18.662482,0 35.037304,-8.200015 47.559228,-23.755925c1.204031,-1.447061 1.444838,-3.497065 0.602015,-5.305892z" class="fil1"/>
 </g>
</svg>